Coordinates
nRows=12
nColumns=24

# SIMM Motion File Header:
name Coordinates
datacolumns 24
datarows 12
otherdata 1
range 0.94633000000000000000 0.95733000000000001000
endheader
time	pelvis_tx	pelvis_ty	pelvis_tz	pelvis_tilt	pelvis_list	pelvis_rotation	hip_flexion_r	hip_adduction_r	hip_rotation_r	knee_angle_r	ankle_angle_r	subtalar_angle_r	mtp_angle_r	hip_flexion_l	hip_adduction_l	hip_rotation_l	knee_angle_l	ankle_angle_l	subtalar_angle_l	mtp_angle_l	lumbar_extension	lumbar_bending	lumbar_rotation
      0.94633000000000000000	     -1.11039668930138520000	      0.66395541117211909000	      0.27086534549931440000	      5.64825368593523520000	      3.31483461432076700000	     -2.44999813956190240000	    -20.41566971786020800000	     -2.10641748438035360000	    -13.55606917828411500000	    -20.75317334529967900000	     15.55323575464817600000	      0.00000000000024949486	     -0.00000000000033911515	     16.86180956653580100000	      6.76705749726560320000	     -2.57747435951277510000	     -9.28855110729244870000	    -12.45024804632643600000	      0.00000000000004010571	      0.00000000000063981462	    -25.50753640734659600000	     -5.87390982546425460000	      6.08194225208967420000
      0.94733000000000001000	     -1.10958160159240890000	      0.66408180966791619000	      0.27079078245055399000	      5.61129837116033330000	      3.33017953253152530000	     -2.44068835034415570000	    -20.38018276553013700000	     -2.14842515829402720000	    -13.55540042952427400000	    -20.84245114818164200000	     15.39262378234777600000	      0.00000000000025013909	     -0.00000000000034019336	     16.84937722369711800000	      6.78717339701642250000	     -2.62201227997409080000	     -9.32624094837754570000	    -12.40646257203835000000	      0.00000000000004052300	      0.00000000000064096845	    -25.45036645876557200000	     -5.88826953337164220000	      6.08401897940727300000
      0.94833000000000001000	     -1.10876651388343260000	      0.66420820816371340000	      0.27071621940179358000	      5.57434305638543130000	      3.34552445074228320000	     -2.43137856112640890000	    -20.34469581320006200000	     -2.19043283220770050000	    -13.55473168076443200000	    -20.93172895106360400000	     15.23201181004737700000	      0.00000000000025078332	     -0.00000000000034127157	     16.83694488085843600000	      6.80728929676724090000	     -2.66655020043540650000	     -9.36393078946264450000	    -12.36267709775026600000	      0.00000000000004094028	      0.00000000000064212228	    -25.39319651018454500000	     -5.90262924127903070000	      6.08609570672487270000
      0.94933000000000001000	     -1.10795261221088760000	      0.66433755503566994000	      0.27064456271683118000	      5.53773496397015920000	      3.36029700195285170000	     -2.42409278119147140000	    -20.30688218328848300000	     -2.23372073897518140000	    -13.55499118354619800000	    -21.02374944673343600000	     15.06582444033969800000	      0.00000000000025142353	     -0.00000000000034232353	     16.82169164701359400000	      6.82614485450686730000	     -2.71315112121735780000	     -9.39785403783782060000	    -12.30810597460399500000	      0.00000000000004135265	      0.00000000000064326693	    -25.33597262600994800000	     -5.91758151140221770000	      6.09102018886666570000
      0.95033000000000001000	     -1.10713871053834230000	      0.66446690190762658000	      0.27057290603186873000	      5.50112687155488800000	      3.37506955316342030000	     -2.41680700125653350000	    -20.26906855337690100000	     -2.27700864574266240000	    -13.55525068632796600000	    -21.11576994240327200000	     14.89963707063202000000	      0.00000000000025206375	     -0.00000000000034337550	     16.80643841316875300000	      6.84500041224649270000	     -2.75975204199930960000	     -9.43177728621299850000	    -12.25353485145772200000	      0.00000000000004176503	      0.00000000000064441157	    -25.27874874183535400000	     -5.93253378152540380000	      6.09594467100845880000
      0.95133000000000001000	     -1.10632557806500320000	      0.66459770111454097000	      0.27050265838622178000	      5.46474260857421430000	      3.38955858373437600000	     -2.41046601667193320000	    -20.23011850349674000000	     -2.32093073172410010000	    -13.55606457076661200000	    -21.20918658050108300000	     14.73012388632427700000	      0.00000000000025272449	     -0.00000000000034447365	     16.78975345705125100000	      6.86327344473716130000	     -2.80707944195635320000	     -9.46377189490882920000	    -12.19483387287684700000	      0.00000000000004218738	      0.00000000000064550499	    -25.22160595953558400000	     -5.94775748957211010000	      6.10216654924945170000
      0.95233000000000001000	     -1.10551321479087040000	      0.66472995265641333000	      0.27043381977989028000	      5.42858217502813820000	      3.40376409366571940000	     -2.40506982743766960000	    -20.19003203364799900000	     -2.36548699691949470000	    -13.55743283686213700000	    -21.30399936102687500000	     14.55728488741647000000	      0.00000000000025340576	     -0.00000000000034561799	     16.77163677866109000000	      6.88096395197887480000	     -2.85513332108848730000	     -9.49383786392531800000	    -12.13200303886137200000	      0.00000000000004261970	      0.00000000000064654717	    -25.16454427911063600000	     -5.96325263554233680000	      6.10968582358964250000
      0.95333000000000001000	     -1.10470085151673760000	      0.66486220419828568000	      0.27036498117355878000	      5.39242174148206210000	      3.41796960359706280000	     -2.39967363820340650000	    -20.14994556379926000000	     -2.41004326211488970000	    -13.55880110295766300000	    -21.39881214155266800000	     14.38444588850866000000	      0.00000000000025408703	     -0.00000000000034676234	     16.75352010027092600000	      6.89865445922058740000	     -2.90318720022062230000	     -9.52390383294180690000	    -12.06917220484589500000	      0.00000000000004305203	      0.00000000000064758935	    -25.10748259868568900000	     -5.97874778151256340000	      6.11720509792983420000
      0.95433000000000001000	     -1.10389024205845130000	      0.66499657851701621000	      0.27029847825685049000	      5.35632023985878190000	      3.43169019225019720000	     -2.39573493450573950000	    -20.10738241219644700000	     -2.45568734895595850000	    -13.56133384632715900000	    -21.49620927338308400000	     14.20518128709881000000	      0.00000000000025479506	     -0.00000000000034796064	     16.73334476141715800000	      6.91538180644980920000	     -2.95216295857788950000	     -9.55040421034758680000	    -12.00342942947647800000	      0.00000000000004350829	      0.00000000000064852397	    -25.05028146561681600000	     -5.99465606602303320000	      6.12675270266145230000
      0.95533000000000001000	     -1.10307963260016510000	      0.66513095283574664000	      0.27023197534014215000	      5.32021873823550170000	      3.44541078090333160000	     -2.39179623080807250000	    -20.06481926059363400000	     -2.50133143579702730000	    -13.56386658969665300000	    -21.59360640521349900000	     14.02591668568896200000	      0.00000000000025550310	     -0.00000000000034915895	     16.71316942256338900000	      6.93210915367903090000	     -3.00113871693515710000	     -9.57690458775336850000	    -11.93768665410706100000	      0.00000000000004396454	      0.00000000000064945859	    -24.99308033254794400000	     -6.01056435053350220000	      6.13630030739307040000
      0.95633000000000001000	     -1.10227111299330600000	      0.66526752675382161000	      0.27016807478886840000	      5.28432481729330570000	      3.45863634181045530000	     -2.38953487369642390000	    -20.01979202533345200000	     -2.54813526672864210000	    -13.56732454286847100000	    -21.69373996181482400000	     13.83995363932522000000	      0.00000000000025619148	     -0.00000000000035029126	     16.69071049667596200000	      6.94780270059356480000	     -3.05127056928140310000	     -9.59933840310697480000	    -11.87292641574131800000	      0.00000000000004443301	      0.00000000000065030835	    -24.93597981088414500000	     -6.02696495286340190000	      6.14796370367233540000
      0.95733000000000001000	     -1.10146259338644700000	      0.66540410067189659000	      0.27010417423759470000	      5.24843089635110970000	      3.47186190271757900000	     -2.38727351658477580000	    -19.97476479007326900000	     -2.59493909766025690000	    -13.57078249604028700000	    -21.79387351841615200000	     13.65399059296147400000	      0.00000000000025687987	     -0.00000000000035142358	     16.66825157078853800000	      6.96349624750809770000	     -3.10140242162764990000	     -9.62177221846057940000	    -11.80816617737557600000	      0.00000000000004490149	      0.00000000000065115812	    -24.87887928922034700000	     -6.04336555519330080000	      6.15962709995160210000
